<?xml version="1.0" standalone="no"?>
<svg xmlns:xlink="http://www.w3.org/1999/xlink" id="wave" style="transform:rotate(180deg); transition: 0.3s" viewBox="0 0 1440 230" version="1.1" xmlns="http://www.w3.org/2000/svg"><defs><linearGradient id="sw-gradient-0" x1="0" x2="0" y1="1" y2="0"><stop stop-color="rgba(255, 249, 234, 1)" offset="0%"/><stop stop-color="rgba(255, 249, 234, 1)" offset="100%"/></linearGradient></defs><path style="transform:translate(0, 0px); opacity:1" fill="url(#sw-gradient-0)" d="M0,46L60,46C120,46,240,46,360,53.7C480,61,600,77,720,69C840,61,960,31,1080,34.5C1200,38,1320,77,1440,111.2C1560,146,1680,176,1800,187.8C1920,199,2040,192,2160,176.3C2280,161,2400,138,2520,138C2640,138,2760,161,2880,141.8C3000,123,3120,61,3240,53.7C3360,46,3480,92,3600,122.7C3720,153,3840,169,3960,145.7C4080,123,4200,61,4320,34.5C4440,8,4560,15,4680,23C4800,31,4920,38,5040,57.5C5160,77,5280,107,5400,99.7C5520,92,5640,46,5760,34.5C5880,23,6000,46,6120,65.2C6240,84,6360,100,6480,115C6600,130,6720,146,6840,157.2C6960,169,7080,176,7200,153.3C7320,130,7440,77,7560,76.7C7680,77,7800,130,7920,153.3C8040,176,8160,169,8280,149.5C8400,130,8520,100,8580,84.3L8640,69L8640,230L8580,230C8520,230,8400,230,8280,230C8160,230,8040,230,7920,230C7800,230,7680,230,7560,230C7440,230,7320,230,7200,230C7080,230,6960,230,6840,230C6720,230,6600,230,6480,230C6360,230,6240,230,6120,230C6000,230,5880,230,5760,230C5640,230,5520,230,5400,230C5280,230,5160,230,5040,230C4920,230,4800,230,4680,230C4560,230,4440,230,4320,230C4200,230,4080,230,3960,230C3840,230,3720,230,3600,230C3480,230,3360,230,3240,230C3120,230,3000,230,2880,230C2760,230,2640,230,2520,230C2400,230,2280,230,2160,230C2040,230,1920,230,1800,230C1680,230,1560,230,1440,230C1320,230,1200,230,1080,230C960,230,840,230,720,230C600,230,480,230,360,230C240,230,120,230,60,230L0,230Z"/></svg>