<?xml version="1.0" standalone="no"?>
<svg xmlns:xlink="http://www.w3.org/1999/xlink" id="wave" style="transform:rotate(180deg); transition: 0.3s" viewBox="0 0 1440 100" version="1.1" xmlns="http://www.w3.org/2000/svg"><defs><linearGradient id="sw-gradient-0" x1="0" x2="0" y1="1" y2="0"><stop stop-color="rgba(255, 249, 234, 1)" offset="0%"/><stop stop-color="rgba(255, 249, 234, 1)" offset="100%"/></linearGradient></defs><path style="transform:translate(0, 0px); opacity:1" fill="url(#sw-gradient-0)" d="M0,10L60,18.3C120,27,240,43,360,43.3C480,43,600,27,720,28.3C840,30,960,50,1080,61.7C1200,73,1320,77,1440,78.3C1560,80,1680,80,1800,68.3C1920,57,2040,33,2160,35C2280,37,2400,63,2520,76.7C2640,90,2760,90,2880,88.3C3000,87,3120,83,3240,76.7C3360,70,3480,60,3600,48.3C3720,37,3840,23,3960,28.3C4080,33,4200,57,4320,68.3C4440,80,4560,80,4680,81.7C4800,83,4920,87,5040,73.3C5160,60,5280,30,5400,21.7C5520,13,5640,27,5760,33.3C5880,40,6000,40,6120,36.7C6240,33,6360,27,6480,30C6600,33,6720,47,6840,43.3C6960,40,7080,20,7200,25C7320,30,7440,60,7560,63.3C7680,67,7800,43,7920,28.3C8040,13,8160,7,8280,8.3C8400,10,8520,20,8580,25L8640,30L8640,100L8580,100C8520,100,8400,100,8280,100C8160,100,8040,100,7920,100C7800,100,7680,100,7560,100C7440,100,7320,100,7200,100C7080,100,6960,100,6840,100C6720,100,6600,100,6480,100C6360,100,6240,100,6120,100C6000,100,5880,100,5760,100C5640,100,5520,100,5400,100C5280,100,5160,100,5040,100C4920,100,4800,100,4680,100C4560,100,4440,100,4320,100C4200,100,4080,100,3960,100C3840,100,3720,100,3600,100C3480,100,3360,100,3240,100C3120,100,3000,100,2880,100C2760,100,2640,100,2520,100C2400,100,2280,100,2160,100C2040,100,1920,100,1800,100C1680,100,1560,100,1440,100C1320,100,1200,100,1080,100C960,100,840,100,720,100C600,100,480,100,360,100C240,100,120,100,60,100L0,100Z"/></svg>