<?xml version="1.0" standalone="no"?>
<svg xmlns:xlink="http://www.w3.org/1999/xlink" id="wave" style="transform:rotate(0deg); transition: 0.3s" viewBox="0 0 1440 210" version="1.1" xmlns="http://www.w3.org/2000/svg"><defs><linearGradient id="sw-gradient-0" x1="0" x2="0" y1="1" y2="0"><stop stop-color="rgba(230, 157, 11, 1)" offset="0%"/><stop stop-color="rgba(230, 157, 11, 1)" offset="100%"/></linearGradient></defs><path style="transform:translate(0, 0px); opacity:1" fill="url(#sw-gradient-0)" d="M0,42L60,42C120,42,240,42,360,49C480,56,600,70,720,63C840,56,960,28,1080,31.5C1200,35,1320,70,1440,101.5C1560,133,1680,161,1800,171.5C1920,182,2040,175,2160,161C2280,147,2400,126,2520,126C2640,126,2760,147,2880,129.5C3000,112,3120,56,3240,49C3360,42,3480,84,3600,112C3720,140,3840,154,3960,133C4080,112,4200,56,4320,31.5C4440,7,4560,14,4680,21C4800,28,4920,35,5040,52.5C5160,70,5280,98,5400,91C5520,84,5640,42,5760,31.5C5880,21,6000,42,6120,59.5C6240,77,6360,91,6480,105C6600,119,6720,133,6840,143.5C6960,154,7080,161,7200,140C7320,119,7440,70,7560,70C7680,70,7800,119,7920,140C8040,161,8160,154,8280,136.5C8400,119,8520,91,8580,77L8640,63L8640,210L8580,210C8520,210,8400,210,8280,210C8160,210,8040,210,7920,210C7800,210,7680,210,7560,210C7440,210,7320,210,7200,210C7080,210,6960,210,6840,210C6720,210,6600,210,6480,210C6360,210,6240,210,6120,210C6000,210,5880,210,5760,210C5640,210,5520,210,5400,210C5280,210,5160,210,5040,210C4920,210,4800,210,4680,210C4560,210,4440,210,4320,210C4200,210,4080,210,3960,210C3840,210,3720,210,3600,210C3480,210,3360,210,3240,210C3120,210,3000,210,2880,210C2760,210,2640,210,2520,210C2400,210,2280,210,2160,210C2040,210,1920,210,1800,210C1680,210,1560,210,1440,210C1320,210,1200,210,1080,210C960,210,840,210,720,210C600,210,480,210,360,210C240,210,120,210,60,210L0,210Z"/></svg>